<svg xmlns="http://www.w3.org/2000/svg" xmlns:xlink="http://www.w3.org/1999/xlink" width="1080" zoomAndPan="magnify" viewBox="0 0 810 809.999993" height="1080" preserveAspectRatio="xMidYMid meet" version="1.0"><defs><clipPath id="d1a607aee4"><path d="M 610.550781 665.097656 L 697.550781 665.097656 L 697.550781 752.097656 L 610.550781 752.097656 Z M 610.550781 665.097656 " clip-rule="nonzero"/></clipPath><clipPath id="eba1a97226"><path d="M 654.132812 665.097656 C 630.0625 665.097656 610.550781 684.609375 610.550781 708.679688 C 610.550781 732.75 630.0625 752.261719 654.132812 752.261719 C 678.199219 752.261719 697.714844 732.75 697.714844 708.679688 C 697.714844 684.609375 678.199219 665.097656 654.132812 665.097656 Z M 654.132812 665.097656 " clip-rule="nonzero"/></clipPath><clipPath id="217fb318e5"><path d="M 294.398438 302.683594 L 540.957031 302.683594 L 540.957031 549.242188 L 294.398438 549.242188 Z M 294.398438 302.683594 " clip-rule="nonzero"/></clipPath><clipPath id="d129ad08bd"><path d="M 417.679688 302.683594 C 349.59375 302.683594 294.398438 357.878906 294.398438 425.964844 C 294.398438 494.046875 349.59375 549.242188 417.679688 549.242188 C 485.761719 549.242188 540.957031 494.046875 540.957031 425.964844 C 540.957031 357.878906 485.761719 302.683594 417.679688 302.683594 Z M 417.679688 302.683594 " clip-rule="nonzero"/></clipPath><clipPath id="7cae3dbdc0"><path d="M 224.808594 233.09375 L 610.308594 233.09375 L 610.308594 618.59375 L 224.808594 618.59375 Z M 224.808594 233.09375 " clip-rule="nonzero"/></clipPath><clipPath id="11092b5286"><path d="M 417.675781 233.09375 C 311.15625 233.09375 224.808594 319.441406 224.808594 425.960938 C 224.808594 532.476562 311.15625 618.828125 417.675781 618.828125 C 524.191406 618.828125 610.542969 532.476562 610.542969 425.960938 C 610.542969 319.441406 524.191406 233.09375 417.675781 233.09375 Z M 417.675781 233.09375 " clip-rule="nonzero"/></clipPath><clipPath id="2aa6e363af"><path d="M 29.9375 176.011719 L 118.4375 176.011719 L 118.4375 264.511719 L 29.9375 264.511719 Z M 29.9375 176.011719 " clip-rule="nonzero"/></clipPath><clipPath id="e9606e37a2"><path d="M 74.246094 176.011719 C 49.773438 176.011719 29.9375 195.847656 29.9375 220.320312 C 29.9375 244.792969 49.773438 264.628906 74.246094 264.628906 C 98.714844 264.628906 118.554688 244.792969 118.554688 220.320312 C 118.554688 195.847656 98.714844 176.011719 74.246094 176.011719 Z M 74.246094 176.011719 " clip-rule="nonzero"/></clipPath><clipPath id="73fe8d13f4"><path d="M 171.5 62.835938 L 265.8125 62.835938 L 265.8125 158.621094 L 171.5 158.621094 Z M 171.5 62.835938 " clip-rule="nonzero"/></clipPath><clipPath id="6831c91cea"><path d="M 218.65625 62.835938 C 192.613281 62.835938 171.5 84.210938 171.5 110.574219 C 171.5 136.941406 192.613281 158.3125 218.65625 158.3125 C 244.699219 158.3125 265.8125 136.941406 265.8125 110.574219 C 265.8125 84.210938 244.699219 62.835938 218.65625 62.835938 Z M 218.65625 62.835938 " clip-rule="nonzero"/></clipPath><clipPath id="00ddf74618"><path d="M 171.5 62.835938 L 266 62.835938 L 266 158.085938 L 171.5 158.085938 Z M 171.5 62.835938 " clip-rule="nonzero"/></clipPath><clipPath id="59a1307bf8"><path d="M 218.65625 62.835938 C 192.613281 62.835938 171.5 84.207031 171.5 110.574219 C 171.5 136.9375 192.613281 158.308594 218.65625 158.308594 C 244.699219 158.308594 265.808594 136.9375 265.808594 110.574219 C 265.808594 84.207031 244.699219 62.835938 218.65625 62.835938 Z M 218.65625 62.835938 " clip-rule="nonzero"/></clipPath><clipPath id="e47df2b064"><path d="M 0 298.046875 L 125.25 298.046875 L 125.25 423.296875 L 0 423.296875 Z M 0 298.046875 " clip-rule="nonzero"/></clipPath><clipPath id="1d66126f22"><path d="M 62.753906 298.046875 C 28.097656 298.046875 0 326.140625 0 360.800781 C 0 395.457031 28.097656 423.554688 62.753906 423.554688 C 97.410156 423.554688 125.507812 395.457031 125.507812 360.800781 C 125.507812 326.140625 97.410156 298.046875 62.753906 298.046875 Z M 62.753906 298.046875 " clip-rule="nonzero"/></clipPath><clipPath id="ffd8a19806"><path d="M 685.609375 360.804688 L 808.65625 360.804688 L 808.65625 485.773438 L 685.609375 485.773438 Z M 685.609375 360.804688 " clip-rule="nonzero"/></clipPath><clipPath id="b80b41028a"><path d="M 747.132812 360.804688 C 713.152344 360.804688 685.609375 388.691406 685.609375 423.085938 C 685.609375 457.484375 713.152344 485.371094 747.132812 485.371094 C 781.109375 485.371094 808.65625 457.484375 808.65625 423.085938 C 808.65625 388.691406 781.109375 360.804688 747.132812 360.804688 Z M 747.132812 360.804688 " clip-rule="nonzero"/></clipPath><clipPath id="a5bf780fc4"><path d="M 685.609375 360.808594 L 808.609375 360.808594 L 808.609375 485.304688 L 685.609375 485.304688 Z M 685.609375 360.808594 " clip-rule="nonzero"/></clipPath><clipPath id="3338019ceb"><path d="M 747.128906 360.808594 C 713.152344 360.808594 685.609375 388.6875 685.609375 423.085938 C 685.609375 457.480469 713.152344 485.363281 747.128906 485.363281 C 781.101562 485.363281 808.644531 457.480469 808.644531 423.085938 C 808.644531 388.6875 781.101562 360.808594 747.128906 360.808594 Z M 747.128906 360.808594 " clip-rule="nonzero"/></clipPath><clipPath id="62ad479936"><path d="M 679.589844 514.269531 L 778.402344 514.269531 L 778.402344 613.082031 L 679.589844 613.082031 Z M 679.589844 514.269531 " clip-rule="nonzero"/></clipPath><clipPath id="4022fa688e"><path d="M 728.996094 514.269531 C 701.707031 514.269531 679.589844 536.390625 679.589844 563.675781 C 679.589844 590.960938 701.707031 613.082031 728.996094 613.082031 C 756.28125 613.082031 778.402344 590.960938 778.402344 563.675781 C 778.402344 536.390625 756.28125 514.269531 728.996094 514.269531 Z M 728.996094 514.269531 " clip-rule="nonzero"/></clipPath><clipPath id="68821d2a95"><path d="M 487.667969 696.441406 L 572.839844 696.441406 L 572.839844 782.949219 L 487.667969 782.949219 Z M 487.667969 696.441406 " clip-rule="nonzero"/></clipPath><clipPath id="da9161a740"><path d="M 530.253906 696.441406 C 506.734375 696.441406 487.667969 715.746094 487.667969 739.554688 C 487.667969 763.367188 506.734375 782.667969 530.253906 782.667969 C 553.773438 782.667969 572.839844 763.367188 572.839844 739.554688 C 572.839844 715.746094 553.773438 696.441406 530.253906 696.441406 Z M 530.253906 696.441406 " clip-rule="nonzero"/></clipPath><clipPath id="4b36c717a4"><path d="M 487.667969 696.445312 L 573 696.445312 L 573 782.691406 L 487.667969 782.691406 Z M 487.667969 696.445312 " clip-rule="nonzero"/></clipPath><clipPath id="6220f8d78a"><path d="M 530.253906 696.445312 C 506.734375 696.445312 487.667969 715.746094 487.667969 739.554688 C 487.667969 763.367188 506.734375 782.667969 530.253906 782.667969 C 553.773438 782.667969 572.839844 763.367188 572.839844 739.554688 C 572.839844 715.746094 553.773438 696.445312 530.253906 696.445312 Z M 530.253906 696.445312 " clip-rule="nonzero"/></clipPath><clipPath id="5e24001c52"><path d="M 350.25 701.253906 L 458.988281 701.253906 L 458.988281 809.992188 L 350.25 809.992188 Z M 350.25 701.253906 " clip-rule="nonzero"/></clipPath><clipPath id="68c8cb38f4"><path d="M 404.621094 701.253906 C 374.59375 701.253906 350.25 725.59375 350.25 755.621094 C 350.25 785.648438 374.59375 809.992188 404.621094 809.992188 C 434.648438 809.992188 458.988281 785.648438 458.988281 755.621094 C 458.988281 725.59375 434.648438 701.253906 404.621094 701.253906 Z M 404.621094 701.253906 " clip-rule="nonzero"/></clipPath><clipPath id="6cc8ad645c"><path d="M 128.761719 469.839844 L 213.9375 469.839844 L 213.9375 556.34375 L 128.761719 556.34375 Z M 128.761719 469.839844 " clip-rule="nonzero"/></clipPath><clipPath id="01130e95b5"><path d="M 171.347656 469.839844 C 147.828125 469.839844 128.761719 489.140625 128.761719 512.953125 C 128.761719 536.761719 147.828125 556.066406 171.347656 556.066406 C 194.871094 556.066406 213.9375 536.761719 213.9375 512.953125 C 213.9375 489.140625 194.871094 469.839844 171.347656 469.839844 Z M 171.347656 469.839844 " clip-rule="nonzero"/></clipPath><clipPath id="aa0e11675d"><path d="M 128.761719 469.839844 L 214 469.839844 L 214 556.089844 L 128.761719 556.089844 Z M 128.761719 469.839844 " clip-rule="nonzero"/></clipPath><clipPath id="f862fa7a23"><path d="M 171.347656 469.839844 C 147.828125 469.839844 128.761719 489.140625 128.761719 512.953125 C 128.761719 536.761719 147.828125 556.0625 171.347656 556.0625 C 194.867188 556.0625 213.933594 536.761719 213.933594 512.953125 C 213.933594 489.140625 194.867188 469.839844 171.347656 469.839844 Z M 171.347656 469.839844 " clip-rule="nonzero"/></clipPath><clipPath id="5274578206"><path d="M 294.398438 645.171875 L 372.398438 645.171875 L 372.398438 723.171875 L 294.398438 723.171875 Z M 294.398438 645.171875 " clip-rule="nonzero"/></clipPath><clipPath id="4959cf74ec"><path d="M 333.5625 645.171875 C 311.933594 645.171875 294.398438 662.707031 294.398438 684.335938 C 294.398438 705.964844 311.933594 723.5 333.5625 723.5 C 355.191406 723.5 372.726562 705.964844 372.726562 684.335938 C 372.726562 662.707031 355.191406 645.171875 333.5625 645.171875 Z M 333.5625 645.171875 " clip-rule="nonzero"/></clipPath><clipPath id="e7c96dd3be"><path d="M 35.082031 469.839844 L 113.082031 469.839844 L 113.082031 547.839844 L 35.082031 547.839844 Z M 35.082031 469.839844 " clip-rule="nonzero"/></clipPath><clipPath id="197962305c"><path d="M 74.246094 469.839844 C 52.617188 469.839844 35.082031 487.371094 35.082031 509.003906 C 35.082031 530.632812 52.617188 548.167969 74.246094 548.167969 C 95.875 548.167969 113.410156 530.632812 113.410156 509.003906 C 113.410156 487.371094 95.875 469.839844 74.246094 469.839844 Z M 74.246094 469.839844 " clip-rule="nonzero"/></clipPath><clipPath id="9defed45f3"><path d="M 712.292969 226.578125 L 788.042969 226.578125 L 788.042969 302.328125 L 712.292969 302.328125 Z M 712.292969 226.578125 " clip-rule="nonzero"/></clipPath><clipPath id="fe305b1696"><path d="M 750.34375 226.578125 C 729.328125 226.578125 712.292969 243.613281 712.292969 264.628906 C 712.292969 285.644531 729.328125 302.679688 750.34375 302.679688 C 771.359375 302.679688 788.394531 285.644531 788.394531 264.628906 C 788.394531 243.613281 771.359375 226.578125 750.34375 226.578125 Z M 750.34375 226.578125 " clip-rule="nonzero"/></clipPath><clipPath id="951578949d"><path d="M 534.382812 203.9375 L 576.96875 203.9375 L 576.96875 247.1875 L 534.382812 247.1875 Z M 534.382812 203.9375 " clip-rule="nonzero"/></clipPath><clipPath id="1bb9bc9742"><path d="M 555.675781 203.9375 C 543.914062 203.9375 534.382812 213.585938 534.382812 225.492188 C 534.382812 237.398438 543.914062 247.050781 555.675781 247.050781 C 567.433594 247.050781 576.96875 237.398438 576.96875 225.492188 C 576.96875 213.585938 567.433594 203.9375 555.675781 203.9375 Z M 555.675781 203.9375 " clip-rule="nonzero"/></clipPath><clipPath id="c0aa02a0b3"><path d="M 534.382812 203.9375 L 577 203.9375 L 577 246.6875 L 534.382812 246.6875 Z M 534.382812 203.9375 " clip-rule="nonzero"/></clipPath><clipPath id="1c44e32821"><path d="M 555.675781 203.9375 C 543.914062 203.9375 534.382812 213.585938 534.382812 225.492188 C 534.382812 237.398438 543.914062 247.046875 555.675781 247.046875 C 567.433594 247.046875 576.96875 237.398438 576.96875 225.492188 C 576.96875 213.585938 567.433594 203.9375 555.675781 203.9375 Z M 555.675781 203.9375 " clip-rule="nonzero"/></clipPath></defs><g clip-path="url(#d1a607aee4)"><g clip-path="url(#eba1a97226)"><path stroke-linecap="butt" transform="matrix(0.75, 0, 0, 0.75, 610.549077, 665.097107)" fill="none" stroke-linejoin="miter" d="M 58.111654 0.000732947 C 26.017901 0.000732947 0.00227262 26.016361 0.00227262 58.110115 C 0.00227262 90.203868 26.017901 116.219496 58.111654 116.219496 C 90.2002 116.219496 116.221036 90.203868 116.221036 58.110115 C 116.221036 26.016361 90.2002 0.000732947 58.111654 0.000732947 Z M 58.111654 0.000732947 " stroke="#015bd4" stroke-width="58" stroke-opacity="1" stroke-miterlimit="4"/></g></g><g clip-path="url(#217fb318e5)"><g clip-path="url(#d129ad08bd)"><path fill="#015bd4" d="M 294.398438 302.683594 L 540.957031 302.683594 L 540.957031 549.242188 L 294.398438 549.242188 Z M 294.398438 302.683594 " fill-opacity="1" fill-rule="nonzero"/></g></g><g clip-path="url(#7cae3dbdc0)"><g clip-path="url(#11092b5286)"><path stroke-linecap="butt" transform="matrix(0.75, 0, 0, 0.75, 224.807159, 233.092626)" fill="none" stroke-linejoin="miter" d="M 257.158175 0.00149884 C 115.132127 0.00149884 0.00191248 115.131713 0.00191248 257.157762 C 0.00191248 399.178602 115.132127 514.314025 257.158175 514.314025 C 399.179016 514.314025 514.314438 399.178602 514.314438 257.157762 C 514.314438 115.131713 399.179016 0.00149884 257.158175 0.00149884 Z M 257.158175 0.00149884 " stroke="#015bd4" stroke-width="110" stroke-opacity="1" stroke-miterlimit="4"/></g></g><path stroke-linecap="round" transform="matrix(0.530686, -0.529974, 0.529974, 0.530686, 115.446106, 718.264664)" fill="none" stroke-linejoin="miter" d="M 151.99861 19.000948 L 476.394997 19.00023 " stroke="#015bd4" stroke-width="38" stroke-opacity="1" stroke-miterlimit="4"/><path stroke-linecap="round" transform="matrix(0.530686, -0.529974, 0.529974, 0.530686, 115.446106, 718.264664)" fill="none" stroke-linejoin="round" d="M 18.999883 18.998256 C 19.000824 -12.482738 44.52055 -37.999934 76.001544 -37.998993 C 107.478852 -38.001733 132.999734 -12.478326 133.002474 18.998982 C 133.001533 50.479976 107.478126 76.000858 75.997132 75.999917 C 44.519824 76.002657 18.998942 50.47925 18.999883 18.998256 " stroke="#015bd4" stroke-width="38" stroke-opacity="1" stroke-miterlimit="4"/><path stroke-linecap="round" transform="matrix(0.530686, -0.529974, 0.529974, 0.530686, 115.446106, 718.264664)" fill-opacity="1" fill="#015bd4" fill-rule="nonzero" stroke-linejoin="round" d="M 609.397405 18.999236 C 609.396464 50.48023 583.880423 76.001107 552.399429 76.000166 C 520.918436 75.999226 495.397559 50.483184 495.398499 19.002191 C 495.39944 -12.478803 520.915481 -37.99968 552.396475 -37.998739 C 583.877469 -37.997798 609.398346 -12.481757 609.397405 18.999236 " stroke="#015bd4" stroke-width="38" stroke-opacity="1" stroke-miterlimit="4"/><path stroke-linecap="round" transform="matrix(0.53033, -0.53033, 0.53033, 0.53033, 383.451781, 451.854837)" fill="none" stroke-linejoin="miter" d="M 151.999174 18.997992 L 422.743744 19.001675 " stroke="#015bd4" stroke-width="38" stroke-opacity="1" stroke-miterlimit="4"/><path stroke-linecap="round" transform="matrix(0.53033, -0.53033, 0.53033, 0.53033, 383.451781, 451.854837)" fill-opacity="1" fill="#015bd4" fill-rule="nonzero" stroke-linejoin="round" d="M 19.000485 19.001675 C 19.000485 -12.479309 44.518938 -37.997763 75.999923 -37.997763 C 107.480907 -37.997763 132.999361 -12.479309 132.999361 19.001675 C 132.999361 50.48266 107.480907 76.001114 75.999923 76.001114 C 44.518938 76.001114 19.000485 50.48266 19.000485 19.001675 " stroke="#015bd4" stroke-width="38" stroke-opacity="1" stroke-miterlimit="4"/><path stroke-linecap="round" transform="matrix(0.53033, -0.53033, 0.53033, 0.53033, 383.451781, 451.854837)" fill-opacity="1" fill="#015bd4" fill-rule="nonzero" stroke-linejoin="round" d="M 555.742433 18.997992 C 555.742433 50.478977 530.22398 75.997431 498.742995 75.997431 C 467.265693 76.001114 441.743557 50.478977 441.743557 18.997992 C 441.743557 -12.482992 467.26201 -38.001446 498.742995 -38.001446 C 530.22398 -38.001446 555.746116 -12.479309 555.742433 18.997992 " stroke="#015bd4" stroke-width="38" stroke-opacity="1" stroke-miterlimit="4"/><path stroke-linecap="round" transform="matrix(0.000000001309, -0.75, 0.75, 0.000000001309, 391.42639, 542.450969)" fill="none" stroke-linejoin="miter" d="M 280.002347 34.999189 L 443.267981 34.999189 " stroke="#015bd4" stroke-width="70" stroke-opacity="1" stroke-miterlimit="4"/><path stroke-linecap="round" transform="matrix(0.000000001309, -0.75, 0.75, 0.000000001309, 391.42639, 542.450969)" fill-opacity="1" fill="#015bd4" fill-rule="nonzero" stroke-linejoin="round" d="M 35.002335 34.99919 C 35.002335 -22.990396 82.007546 -70.000816 140.00234 -70.000816 C 197.991926 -70.000816 245.002346 -22.990397 245.002346 34.999189 C 245.002346 92.988776 197.991927 139.999195 140.002341 139.999195 C 82.007546 139.999195 35.002335 92.988776 35.002335 34.99919 " stroke="#015bd4" stroke-width="70" stroke-opacity="1" stroke-miterlimit="4"/><path stroke-linecap="round" transform="matrix(0.000000001309, -0.75, 0.75, 0.000000001309, 391.42639, 542.450969)" fill-opacity="1" fill="#015bd4" fill-rule="nonzero" stroke-linejoin="round" d="M 688.267993 34.999189 C 688.267993 92.988775 641.262782 139.999194 583.267988 139.999194 C 525.278402 139.999194 478.267983 92.988775 478.267982 34.999189 C 478.267982 -22.990397 525.278401 -70.000816 583.267988 -70.000816 C 641.262782 -70.000817 688.267993 -22.990398 688.267993 34.999189 " stroke="#015bd4" stroke-width="70" stroke-opacity="1" stroke-miterlimit="4"/><path stroke-linecap="butt" transform="matrix(0.48829, 0.569274, -0.569274, 0.48829, 485.830467, 477.538412)" fill="none" stroke-linejoin="miter" d="M 0.000922502 30.999704 L 336.682689 30.999508 " stroke="#015bd4" stroke-width="62" stroke-opacity="1" stroke-miterlimit="4"/><path stroke-linecap="butt" transform="matrix(-0.514715, -0.545499, 0.545499, -0.514715, 274.076416, 334.784418)" fill="none" stroke-linejoin="miter" d="M -0.00114741 31.001492 L 150.886084 31.001104 " stroke="#015bd4" stroke-width="62" stroke-opacity="1" stroke-miterlimit="4"/><path stroke-linecap="butt" transform="matrix(0.510928, 0.549047, -0.549047, 0.510928, 349.79647, 56.963458)" fill="none" stroke-linejoin="miter" d="M 0.000450804 21.998038 L 184.7264 22.003144 " stroke="#015bd4" stroke-width="44" stroke-opacity="1" stroke-miterlimit="4"/><g clip-path="url(#2aa6e363af)"><g clip-path="url(#e9606e37a2)"><path stroke-linecap="butt" transform="matrix(0.75, 0, 0, 0.75, 29.936459, 176.0119)" fill="none" stroke-linejoin="miter" d="M 59.079516 -0.000241593 C 26.449306 -0.000241593 0.00138817 26.447676 0.00138817 59.077886 C 0.00138817 91.708096 26.449306 118.156014 59.079516 118.156014 C 91.704518 118.156014 118.157644 91.708096 118.157644 59.077886 C 118.157644 26.447676 91.704518 -0.000241593 59.079516 -0.000241593 Z M 59.079516 -0.000241593 " stroke="#015bd4" stroke-width="58" stroke-opacity="1" stroke-miterlimit="4"/></g></g><path stroke-linecap="butt" transform="matrix(-0.53033, 0.53033, -0.53033, -0.53033, 291.671473, 318.197085)" fill="none" stroke-linejoin="miter" d="M 0.00163274 30.999823 L 282.623387 30.999823 " stroke="#015bd4" stroke-width="62" stroke-opacity="1" stroke-miterlimit="4"/><path stroke-linecap="butt" transform="matrix(0.533064, 0.527582, -0.527582, 0.533064, 104.212952, 383.589464)" fill="none" stroke-linejoin="miter" d="M -0.00109342 22.000197 L 107.082821 22.001294 " stroke="#015bd4" stroke-width="44" stroke-opacity="1" stroke-miterlimit="4"/><g clip-path="url(#73fe8d13f4)"><g clip-path="url(#6831c91cea)"><path fill="#015bd4" d="M 171.5 62.835938 L 265.8125 62.835938 L 265.8125 158.253906 L 171.5 158.253906 Z M 171.5 62.835938 " fill-opacity="1" fill-rule="nonzero"/></g></g><g clip-path="url(#00ddf74618)"><g clip-path="url(#59a1307bf8)"><path stroke-linecap="butt" transform="matrix(0.75, 0, 0, 0.75, 171.501088, 62.83657)" fill="none" stroke-linejoin="miter" d="M 62.873552 -0.000842852 C 28.149592 -0.000842852 -0.0014513 28.49395 -0.0014513 63.650202 C -0.0014513 98.801245 28.149592 127.296039 62.873552 127.296039 C 97.597512 127.296039 125.743347 98.801245 125.743347 63.650202 C 125.743347 28.49395 97.597512 -0.000842852 62.873552 -0.000842852 Z M 62.873552 -0.000842852 " stroke="#015bd4" stroke-width="58" stroke-opacity="1" stroke-miterlimit="4"/></g></g><path stroke-linecap="butt" transform="matrix(0.53033, -0.53033, 0.53033, 0.53033, 125.282913, 279.609908)" fill="none" stroke-linejoin="miter" d="M -0.00106525 31.000143 L 241.626908 30.996461 " stroke="#015bd4" stroke-width="62" stroke-opacity="1" stroke-miterlimit="4"/><g clip-path="url(#e47df2b064)"><g clip-path="url(#1d66126f22)"><path stroke-linecap="butt" transform="matrix(0.75, 0, 0, 0.75, 0.0000035, 298.046695)" fill="none" stroke-linejoin="miter" d="M 83.671875 0.000239459 C 37.463539 0.000239459 -0.00000466667 37.458575 -0.00000466667 83.672119 C -0.00000466667 129.880454 37.463539 167.343998 83.671875 167.343998 C 129.88021 167.343998 167.343754 129.880454 167.343754 83.672119 C 167.343754 37.458575 129.88021 0.000239459 83.671875 0.000239459 Z M 83.671875 0.000239459 " stroke="#015bd4" stroke-width="104" stroke-opacity="1" stroke-miterlimit="4"/></g></g><path stroke-linecap="butt" transform="matrix(-0.749912, -0.0115063, 0.0115063, -0.749912, 762.219157, 465.832173)" fill="none" stroke-linejoin="miter" d="M 0.0000496727 57.001693 L 261.489161 57.000404 " stroke="#015bd4" stroke-width="114" stroke-opacity="1" stroke-miterlimit="4"/><g clip-path="url(#ffd8a19806)"><g clip-path="url(#b80b41028a)"><path fill="#015bd4" d="M 685.609375 360.804688 L 808.65625 360.804688 L 808.65625 485.292969 L 685.609375 485.292969 Z M 685.609375 360.804688 " fill-opacity="1" fill-rule="nonzero"/></g></g><g clip-path="url(#a5bf780fc4)"><g clip-path="url(#3338019ceb)"><path stroke-linecap="butt" transform="matrix(0.75, 0, 0, 0.75, 685.609529, 360.806925)" fill="none" stroke-linejoin="miter" d="M 82.02584 0.00222494 C 36.723755 0.00222494 -0.000205344 37.174102 -0.000205344 83.038687 C -0.000205344 128.898065 36.723755 166.07515 82.02584 166.07515 C 127.322718 166.07515 164.046678 128.898065 164.046678 83.038687 C 164.046678 37.174102 127.322718 0.00222494 82.02584 0.00222494 Z M 82.02584 0.00222494 " stroke="#015bd4" stroke-width="58" stroke-opacity="1" stroke-miterlimit="4"/></g></g><path stroke-linecap="butt" transform="matrix(-0.534017, -0.526617, 0.526617, -0.534017, 662.078178, 624.039589)" fill="none" stroke-linejoin="miter" d="M -0.00252356 20.499659 L 177.673445 20.498113 " stroke="#015bd4" stroke-width="41" stroke-opacity="1" stroke-miterlimit="4"/><path stroke-linecap="butt" transform="matrix(-0.553708, 0.505873, -0.505873, -0.553708, 723.222159, 605.08451)" fill="none" stroke-linejoin="miter" d="M -0.000391801 31.0025 L 79.25018 30.996972 " stroke="#015bd4" stroke-width="62" stroke-opacity="1" stroke-miterlimit="4"/><g clip-path="url(#62ad479936)"><g clip-path="url(#4022fa688e)"><path stroke-linecap="butt" transform="matrix(0.75, 0, 0, 0.75, 679.588217, 514.269066)" fill="none" stroke-linejoin="miter" d="M 65.877172 0.000620163 C 29.491753 0.000620163 0.00216859 29.495413 0.00216859 65.875623 C 0.00216859 102.255834 29.491753 131.750627 65.877172 131.750627 C 102.257382 131.750627 131.752175 102.255834 131.752175 65.875623 C 131.752175 29.495413 102.257382 0.000620163 65.877172 0.000620163 Z M 65.877172 0.000620163 " stroke="#015bd4" stroke-width="58" stroke-opacity="1" stroke-miterlimit="4"/></g></g><path stroke-linecap="butt" transform="matrix(-0.555392, 0.504024, -0.504024, -0.555392, 614.425293, 680.141482)" fill="none" stroke-linejoin="miter" d="M -0.00132792 16.500518 L 113.828967 16.497253 " stroke="#015bd4" stroke-width="33" stroke-opacity="1" stroke-miterlimit="4"/><g clip-path="url(#68821d2a95)"><g clip-path="url(#da9161a740)"><path fill="#015bd4" d="M 487.667969 696.441406 L 572.839844 696.441406 L 572.839844 782.613281 L 487.667969 782.613281 Z M 487.667969 696.441406 " fill-opacity="1" fill-rule="nonzero"/></g></g><g clip-path="url(#4b36c717a4)"><g clip-path="url(#6220f8d78a)"><path stroke-linecap="butt" transform="matrix(0.75, 0, 0, 0.75, 487.666491, 696.443529)" fill="none" stroke-linejoin="miter" d="M 56.783223 0.00237805 C 25.423847 0.00237805 0.00197038 25.736754 0.00197038 57.481548 C 0.00197038 89.231549 25.423847 114.965925 56.783223 114.965925 C 88.1426 114.965925 113.564476 89.231549 113.564476 57.481548 C 113.564476 25.736754 88.1426 0.00237805 56.783223 0.00237805 Z M 56.783223 0.00237805 " stroke="#015bd4" stroke-width="58" stroke-opacity="1" stroke-miterlimit="4"/></g></g><path stroke-linecap="butt" transform="matrix(-0.564249, 0.494088, -0.494088, -0.564249, 568.906607, 630.585396)" fill="none" stroke-linejoin="miter" d="M 0.000112369 30.999958 L 237.2088 30.997803 " stroke="#015bd4" stroke-width="62" stroke-opacity="1" stroke-miterlimit="4"/><g clip-path="url(#5e24001c52)"><g clip-path="url(#68c8cb38f4)"><path stroke-linecap="butt" transform="matrix(0.75, 0, 0, 0.75, 350.251186, 701.252385)" fill="none" stroke-linejoin="miter" d="M 72.493214 0.00202871 C 32.456754 0.00202871 -0.00158117 32.455155 -0.00158117 72.491616 C -0.00158117 112.528076 32.456754 144.986411 72.493214 144.986411 C 112.529674 144.986411 144.982801 112.528076 144.982801 72.491616 C 144.982801 32.455155 112.529674 0.00202871 72.493214 0.00202871 Z M 72.493214 0.00202871 " stroke="#015bd4" stroke-width="104" stroke-opacity="1" stroke-miterlimit="4"/></g></g><path stroke-linecap="butt" transform="matrix(-0.518499, -0.541903, 0.541903, -0.518499, 304.126188, 672.36181)" fill="none" stroke-linejoin="miter" d="M -0.000978918 20.497554 L 251.447803 20.499392 " stroke="#015bd4" stroke-width="41" stroke-opacity="1" stroke-miterlimit="4"/><g clip-path="url(#6cc8ad645c)"><g clip-path="url(#01130e95b5)"><path fill="#015bd4" d="M 128.761719 469.839844 L 213.9375 469.839844 L 213.9375 556.011719 L 128.761719 556.011719 Z M 128.761719 469.839844 " fill-opacity="1" fill-rule="nonzero"/></g></g><g clip-path="url(#aa0e11675d)"><g clip-path="url(#f862fa7a23)"><path stroke-linecap="butt" transform="matrix(0.75, 0, 0, 0.75, 128.761843, 469.839668)" fill="none" stroke-linejoin="miter" d="M 56.781088 0.000233849 C 25.421711 0.000233849 -0.000165163 25.73461 -0.000165163 57.484612 C -0.000165163 89.229405 25.421711 114.963781 56.781088 114.963781 C 88.140464 114.963781 113.562341 89.229405 113.562341 57.484612 C 113.562341 25.73461 88.140464 0.000233849 56.781088 0.000233849 Z M 56.781088 0.000233849 " stroke="#015bd4" stroke-width="58" stroke-opacity="1" stroke-miterlimit="4"/></g></g><g clip-path="url(#5274578206)"><g clip-path="url(#4959cf74ec)"><path stroke-linecap="butt" transform="matrix(0.75, 0, 0, 0.75, 294.399217, 645.170844)" fill="none" stroke-linejoin="miter" d="M 52.217717 0.00137528 C 23.379172 0.00137528 -0.00103892 23.381586 -0.00103892 52.220131 C -0.00103892 81.058676 23.379172 104.438887 52.217717 104.438887 C 81.056262 104.438887 104.436473 81.058676 104.436473 52.220131 C 104.436473 23.381586 81.056262 0.00137528 52.217717 0.00137528 Z M 52.217717 0.00137528 " stroke="#015bd4" stroke-width="72" stroke-opacity="1" stroke-miterlimit="4"/></g></g><path stroke-linecap="butt" transform="matrix(-0.548082, 0.511963, -0.511963, -0.548082, 227.875816, 567.331935)" fill="none" stroke-linejoin="miter" d="M -0.000784757 16.498385 L 105.279311 16.500299 " stroke="#015bd4" stroke-width="33" stroke-opacity="1" stroke-miterlimit="4"/><path stroke-linecap="butt" transform="matrix(0.53033, 0.53033, -0.53033, 0.53033, 92.894677, 508.701858)" fill="none" stroke-linejoin="miter" d="M 0.00105653 16.500491 L 175.356181 16.500491 " stroke="#015bd4" stroke-width="33" stroke-opacity="1" stroke-miterlimit="4"/><g clip-path="url(#e7c96dd3be)"><g clip-path="url(#197962305c)"><path stroke-linecap="butt" transform="matrix(0.75, 0, 0, 0.75, 35.081036, 469.838228)" fill="none" stroke-linejoin="miter" d="M 52.220083 0.00215385 C 23.381538 0.00215385 0.00132735 23.377157 0.00132735 52.22091 C 0.00132735 81.059455 23.381538 104.439666 52.220083 104.439666 C 81.058628 104.439666 104.438839 81.059455 104.438839 52.22091 C 104.438839 23.377157 81.058628 0.00215385 52.220083 0.00215385 Z M 52.220083 0.00215385 " stroke="#015bd4" stroke-width="72" stroke-opacity="1" stroke-miterlimit="4"/></g></g><path stroke-linecap="butt" transform="matrix(-0.540978, 0.519464, -0.519464, -0.540978, 745.568462, 286.603806)" fill="none" stroke-linejoin="miter" d="M -0.000576201 16.502936 L 241.629165 16.499991 " stroke="#015bd4" stroke-width="33" stroke-opacity="1" stroke-miterlimit="4"/><g clip-path="url(#9defed45f3)"><g clip-path="url(#fe305b1696)"><path stroke-linecap="butt" transform="matrix(0.75, 0, 0, 0.75, 712.293712, 226.578143)" fill="none" stroke-linejoin="miter" d="M 50.733387 -0.0000240016 C 22.712552 -0.0000240016 -0.000990554 22.713519 -0.000990554 50.734354 C -0.000990554 78.755188 22.712552 101.468731 50.733387 101.468731 C 78.754222 101.468731 101.467765 78.755188 101.467765 50.734354 C 101.467765 22.713519 78.754222 -0.0000240016 50.733387 -0.0000240016 Z M 50.733387 -0.0000240016 " stroke="#015bd4" stroke-width="58" stroke-opacity="1" stroke-miterlimit="4"/></g></g><path stroke-linecap="butt" transform="matrix(0.537265, 0.523303, -0.523303, 0.537265, 577.086598, 225.810769)" fill="none" stroke-linejoin="miter" d="M 0.00210034 19.500969 L 63.201618 19.496911 " stroke="#015bd4" stroke-width="39" stroke-opacity="1" stroke-miterlimit="4"/><g clip-path="url(#951578949d)"><g clip-path="url(#1bb9bc9742)"><path fill="#015bd4" d="M 534.382812 203.9375 L 576.96875 203.9375 L 576.96875 247.023438 L 534.382812 247.023438 Z M 534.382812 203.9375 " fill-opacity="1" fill-rule="nonzero"/></g></g><g clip-path="url(#c0aa02a0b3)"><g clip-path="url(#1c44e32821)"><path stroke-linecap="butt" transform="matrix(0.75, 0, 0, 0.75, 534.381529, 203.936875)" fill="none" stroke-linejoin="miter" d="M 28.392338 0.00083288 C 12.710046 0.00083288 0.00171185 12.865417 0.00171185 28.740418 C 0.00171185 44.615418 12.710046 57.480002 28.392338 57.480002 C 44.069422 57.480002 56.782965 44.615418 56.782965 28.740418 C 56.782965 12.865417 44.069422 0.00083288 28.392338 0.00083288 Z M 28.392338 0.00083288 " stroke="#015bd4" stroke-width="58" stroke-opacity="1" stroke-miterlimit="4"/></g></g><path stroke-linecap="butt" transform="matrix(0.519585, 0.540862, -0.540862, 0.519585, 107.023013, 236.525163)" fill="none" stroke-linejoin="miter" d="M 0.00261351 17.999621 L 121.148505 18.000087 " stroke="#015bd4" stroke-width="36" stroke-opacity="1" stroke-miterlimit="4"/><path stroke-linecap="butt" transform="matrix(0.519585, 0.540862, -0.540862, 0.519585, 234.349429, 107.649149)" fill="none" stroke-linejoin="miter" d="M -0.00219679 17.999062 L 121.151059 17.99938 " stroke="#015bd4" stroke-width="36" stroke-opacity="1" stroke-miterlimit="4"/></svg>